<svg xmlns="http://www.w3.org/2000/svg" width="150.702" height="43.277" viewBox="0 0 150.702 43.277">
  <g id="Group_8" data-name="Group 8" transform="translate(-10.691 -8.912)">
    <g id="Group_1" data-name="Group 1" transform="translate(10.691 8.912)">
      <rect id="Rectangle_1" data-name="Rectangle 1" width="10.064" height="2.511" transform="translate(6.342 6.808)" fill="#fff"/>
      <path id="Path_1" data-name="Path 1" d="M24.066,62.451v2.515h.017l0,4.277h-.019v2.51l2.533,0-.006-9.3Z" transform="translate(-17.277 -35.273)" fill="#fff" fill-rule="evenodd"/>
      <rect id="Rectangle_2" data-name="Rectangle 2" width="9.595" height="2.512" transform="translate(27.34 33.957)" fill="#fff"/>
      <path id="Path_2" data-name="Path 2" d="M80.081,31.6V22.3l-2.508,0,.006,9.3Z" transform="translate(-43.623 -15.504)" fill="#fff" fill-rule="evenodd"/>
      <path id="Path_3" data-name="Path 3" d="M32.075,8.926h0l-21.384.01.025,43.253,21.864-.014,21.384-.01L53.938,8.912Zm19.354,2.5v.017h.013V29.294H47.149v-.008l-6.777,0-.011-17.855Zm-38.22,6.808h.011V15.723h-.012l0-4.273L27.1,11.443h3.9V22.5H29l-15.787.01Zm.019,31.436V49.66h-.008V36.094l0-4.277h2.1l8.967,0,.011,17.856ZM31.075,36.084l.008,13.579-4.277,0-.012-20.371L13.215,29.3l0-4.277,17.8-.009.054,5.438v1.353H33.6l-.014-1.424-.011-18.946,4.277,0,.012,20.371L51.44,31.8l0,4.278h-.235v.009H46.929v-.007l-8.9,0v0ZM51.45,46.416h0l0,3.233-17.676.01-.043-4.276h.019v-2.51h-.044L33.665,38.6l17.779-.011,0,3.532h0Z" transform="translate(-10.691 -8.912)" fill="#fff" fill-rule="evenodd"/>
    </g>
    <g id="Group_6" data-name="Group 6" transform="translate(62.806 9.177)">
      <g id="Group_3" data-name="Group 3">
        <g id="Group_2" data-name="Group 2">
          <path id="Path_4" data-name="Path 4" d="M121.925,15.674a2.422,2.422,0,0,0-.9,1.966,2.22,2.22,0,0,0,1.1,1.946,20.116,20.116,0,0,0,5.1,1.706,14.356,14.356,0,0,1,6.2,2.95,7.288,7.288,0,0,1,2.207,5.738A7.574,7.574,0,0,1,132.8,36.1a11.279,11.279,0,0,1-7.444,2.348,17.229,17.229,0,0,1-12-4.936l3.732-4.575q4.534,3.973,8.387,3.973a4.4,4.4,0,0,0,2.709-.743,2.383,2.383,0,0,0,.983-2.007,2.34,2.34,0,0,0-1.043-2.006,13.636,13.636,0,0,0-4.133-1.505,17.965,17.965,0,0,1-7.163-3.03q-2.267-1.865-2.267-5.859a7.262,7.262,0,0,1,2.869-6.16,11.544,11.544,0,0,1,7.163-2.167,17.215,17.215,0,0,1,5.618.963,15.055,15.055,0,0,1,4.9,2.728l-3.17,4.575a12.353,12.353,0,0,0-7.545-2.77A3.777,3.777,0,0,0,121.925,15.674Z" transform="translate(-113.358 -9.434)" fill="#fff"/>
        </g>
      </g>
      <g id="Group_4" data-name="Group 4" transform="translate(75.63 0.136)">
        <path id="Path_5" data-name="Path 5" d="M285.177,33.3v5.372H263.651V34.4l10.987-10.377c2.523-2.4,2.971-3.866,2.971-5.249,0-2.238-1.546-3.54-4.558-3.54a6.965,6.965,0,0,0-5.9,2.848l-4.8-3.092c2.2-3.215,6.185-5.29,11.313-5.29,6.348,0,10.58,3.255,10.58,8.423,0,2.767-.773,5.29-4.761,8.993L272.929,33.3Z" transform="translate(-262.349 -9.702)" fill="#fff"/>
      </g>
      <g id="Group_5" data-name="Group 5" transform="translate(39.198 0.034)">
        <path id="Path_6" data-name="Path 6" d="M190.578,9.5h6.706V33.014h14.53v5.464H190.578Z" transform="translate(-190.578 -9.501)" fill="#fff"/>
      </g>
    </g>
    <g id="Group_7" data-name="Group 7" transform="translate(63.245 43.768)">
      <path id="Path_7" data-name="Path 7" d="M114.222,81.656a4.342,4.342,0,0,1,7.525-2.681l-1.172,1.082a2.536,2.536,0,0,0-1.983-.924,2.523,2.523,0,1,0,0,5.047,2.514,2.514,0,0,0,1.983-.935l1.172,1.081a4.335,4.335,0,0,1-7.525-2.67Z" transform="translate(-114.222 -77.578)" fill="#fff"/>
      <path id="Path_8" data-name="Path 8" d="M151.143,84.04h-3.661l-.7,1.69h-1.87l3.515-7.886h1.8l3.526,7.886h-1.915Zm-.575-1.385-1.25-3.019-1.25,3.019Z" transform="translate(-129.334 -77.709)" fill="#fff"/>
      <path id="Path_9" data-name="Path 9" d="M186.591,80.705c0,1.757-1.318,2.85-3.424,2.85h-1.589V85.73h-1.825V77.844h3.414C185.273,77.844,186.591,78.937,186.591,80.705Zm-1.847,0c0-.868-.563-1.374-1.679-1.374h-1.487v2.738h1.487C184.18,82.069,184.744,81.562,184.744,80.705Z" transform="translate(-146.489 -77.709)" fill="#fff"/>
      <path id="Path_10" data-name="Path 10" d="M211.576,77.844H213.4V85.73h-1.825Z" transform="translate(-162.158 -77.709)" fill="#fff"/>
      <path id="Path_11" data-name="Path 11" d="M235.424,79.331H232.9V77.844h6.872v1.487h-2.523v6.4h-1.825Z" transform="translate(-172.658 -77.709)" fill="#fff"/>
      <path id="Path_12" data-name="Path 12" d="M267.58,84.04h-3.661l-.7,1.69h-1.87l3.515-7.886h1.8l3.526,7.886h-1.915Zm-.575-1.385-1.25-3.019L264.5,82.655Z" transform="translate(-186.667 -77.709)" fill="#fff"/>
      <path id="Path_13" data-name="Path 13" d="M296.191,77.844h1.825v6.4h3.954V85.73h-5.779Z" transform="translate(-203.821 -77.709)" fill="#fff"/>
    </g>
  </g>
</svg>
